<svg width="1914" height="646" viewBox="0 0 1914 646" fill="none" xmlns="http://www.w3.org/2000/svg">
<path fill-rule="evenodd" clip-rule="evenodd" d="M-9 0H1914V457.86L1834 471.269C1754 484.678 1594 511.496 1433 498.087C1326.33 489.147 1219.67 462.016 1113 434.884L1112.98 434.88C1059.65 421.316 1006.33 407.751 953 396.461C933.615 392.382 914.245 388.6 894.887 385.114C752.125 348.257 610.062 334.175 468 342.166C353.665 349.312 238.819 370.755 153.385 389.712C120.961 394.823 92.9355 399.648 71 403.518L-9 416.927V0ZM-9 428.216L-13 429.166V775V775.166V1142H1910V920H-9V661.112V660.995V555V428.216Z" fill="white"/>
</svg>
